<svg xmlns="http://www.w3.org/2000/svg" viewBox="0 0 745.62 491.24"><defs><style>.cls-1{isolation:isolate;}.cls-2{fill:#241f43;}.cls-3{fill:#2f295d;}.cls-4{fill:#29224c;}.cls-5{fill:#ccf4ff;}.cls-6{fill:#f0ca3d;}.cls-7,.cls-8{fill:#fff;}.cls-8{mix-blend-mode:overlay;}</style></defs><g class="cls-1"><g id="BACKGROUND"><rect class="cls-2" x="-2.2" y="-4.78" width="750" height="497.06"/><path class="cls-3" d="M747.8-4.78V231.88c-46.5-40.95-68.12-106.45-189.19-144.4C392.28,35.35,284.77,80,179.35-4.78Z"/><path class="cls-3" d="M747.8,380.74V495.22H-2.2V167.47C59.69,204.36,99.23,264,223.35,322.19a392.47,392.47,0,0,0,38.39,15.66q4.77,1.65,9.43,3.11c1.58.5,3.14,1,4.7,1.45l2.34.7,2.29.66.72.21h0l3.68,1,.93.25c2.28.6,4.55,1.18,6.8,1.72l2.49.58.77.19h0l.09,0q5,1.15,9.95,2.13c1.46.28,2.91.56,4.35.82,1.14.21,2.27.41,3.4.59,1.42.25,2.84.49,4.26.7l2.4.37c2.16.31,4.31.61,6.45.87,1.38.19,2.76.35,4.12.5l.47.06c137,15.17,228.65-68.23,416.08,26.79Z"/><path class="cls-2" d="M344.61,492.28c-.65,1-1.34,2-2.05,2.94H-2.2V359.53c60.56,35.83,130.92,35.61,199.11,39.74q3.57.21,7.12.45c2.66.17,5.32.36,8,.55h0c3.51.26,7,.54,10.49.84l3.72.34c6.63.61,13.22,1.32,19.76,2.17,2.63.34,5.26.7,7.87,1.09,1.54.23,3.08.47,4.61.72q3.89.61,7.74,1.32c9.47,1.73,18.81,3.85,28,6.47A226.18,226.18,0,0,1,324,424C359.13,439.68,363.16,464.62,344.61,492.28Z"/><path class="cls-4" d="M747.8,82v41.47c-63.32-5.77-104.55-81.28-198.23-102.94C488.69,6.45,429.81,12.23,384-4.78H680a252.25,252.25,0,0,0,15.12,39.92C705.57,56.46,726.94,71.19,747.8,82Z"/><path class="cls-2" d="M747.8,334.71v14.16c-18.66-10.69-53.66-26.87-117.52-46.34-117.52-35.85-276.09.45-429.38-67.35C96,188.75,64,126.93-2.2,88.59V42.1A397.85,397.85,0,0,1,57.72,65.93c72.82,36.17,99.05,100,110.4,78.5,8.84-16.78-63-109.14-95.25-149.21H129c22.74,38.31,67.1,110.45,118,179.39,74,100.23,162.87,76,299.27,96.69C641.06,285.65,712.8,316.93,747.8,334.71Z"/><path class="cls-4" d="M678.64,492.28H645.25c-72.8-31.1-233.82-96.91-312-105.57-82.6-9.15-232.6-18.39-335.42-47.56V286c79,66.41,199.63,66.16,342.45,91.45C502.57,406.14,634.06,468.76,678.64,492.28Z"/></g><g id="OBJECTS"><circle class="cls-5" cx="138.6" cy="149.94" r="3.1"/><path class="cls-6" d="M231.12,95a3.1,3.1,0,1,1-3.09-3.1A3.09,3.09,0,0,1,231.12,95Z"/><path class="cls-6" d="M241.94,475.29a3.1,3.1,0,1,1-3.1-3.09A3.1,3.1,0,0,1,241.94,475.29Z"/><path class="cls-6" d="M624.86,81a3.1,3.1,0,1,1-3.1-3.1A3.09,3.09,0,0,1,624.86,81Z"/><path class="cls-5" d="M226.18,184.66a1.26,1.26,0,0,1-2.51,0,1.26,1.26,0,1,1,2.51,0Z"/><path class="cls-7" d="M621.76,185.91a1.26,1.26,0,1,1-1.25-1.25A1.25,1.25,0,0,1,621.76,185.91Z"/><circle class="cls-7" cx="182.02" cy="413.94" r="1.25"/><circle class="cls-7" cx="107.43" cy="91.87" r="1.25"/><path class="cls-7" d="M692.21,72.81A1.26,1.26,0,1,1,691,71.56,1.25,1.25,0,0,1,692.21,72.81Z"/><path class="cls-6" d="M242.54,135.36l-3.23,2.53a.89.89,0,0,1-1.44-.69l0-4.11a.88.88,0,0,0-.4-.73l-3.41-2.3a.9.9,0,0,1,.22-1.59l3.9-1.3a.92.92,0,0,0,.57-.6l1.13-3.95a.89.89,0,0,1,1.57-.29l2.45,3.3a.9.9,0,0,0,.75.36l4.11-.14a.89.89,0,0,1,.75,1.41l-2.38,3.34a.91.91,0,0,0-.11.83l1.41,3.86a.89.89,0,0,1-1.11,1.15l-3.92-1.23A.9.9,0,0,0,242.54,135.36Z"/><path class="cls-7" d="M666.06,145.19l-2.76,1.08a.65.65,0,0,1-.86-.78l.82-2.85a.64.64,0,0,0-.12-.59l-1.88-2.29a.64.64,0,0,1,.47-1l3-.1a.65.65,0,0,0,.52-.3l1.6-2.5a.65.65,0,0,1,1.15.13l1,2.79a.63.63,0,0,0,.44.4l2.88.75a.64.64,0,0,1,.23,1.13l-2.34,1.82a.67.67,0,0,0-.25.55l.18,3a.65.65,0,0,1-1,.58l-2.45-1.67A.64.64,0,0,0,666.06,145.19Z"/><path class="cls-5" d="M151.7,448.43,149.59,452a.89.89,0,0,1-1.59-.13L146.48,448a.9.9,0,0,0-.63-.54l-4-.92a.89.89,0,0,1-.37-1.56l3.16-2.61a.88.88,0,0,0,.32-.77l-.36-4.09a.9.9,0,0,1,1.37-.84l3.47,2.21a.88.88,0,0,0,.82.06l3.79-1.61a.89.89,0,0,1,1.21,1l-1,4a.87.87,0,0,0,.19.8l2.7,3.1a.9.9,0,0,1-.62,1.48l-4.1.26A.88.88,0,0,0,151.7,448.43Z"/><circle class="cls-8" cx="299.42" cy="174.54" r="1.14"/><circle class="cls-8" cx="57.72" cy="455.76" r="1.14"/><circle class="cls-8" cx="57.72" cy="179.44" r="1.14"/><circle class="cls-8" cx="97.56" cy="428.81" r="1.14"/><circle class="cls-8" cx="146.58" cy="393.15" r="1.14"/><path class="cls-8" d="M60,377.07a1.15,1.15,0,1,1-1.15-1.14A1.14,1.14,0,0,1,60,377.07Z"/><circle class="cls-8" cx="21.87" cy="437.88" r="1.14"/><circle class="cls-8" cx="371.22" cy="383.91" r="1.14"/><circle class="cls-8" cx="333.22" cy="453.81" r="1.14"/><circle class="cls-8" cx="367.19" cy="417.05" r="1.14"/><circle class="cls-8" cx="380.2" cy="437.88" r="1.14"/><circle class="cls-8" cx="348.14" cy="474.15" r="1.14"/><path class="cls-8" d="M309,482.49a1.14,1.14,0,1,1-1.14-1.14A1.15,1.15,0,0,1,309,482.49Z"/><circle class="cls-8" cx="312.51" cy="446.89" r="1.14"/><circle class="cls-8" cx="411.6" cy="373.7" r="1.14"/><circle class="cls-8" cx="174.86" cy="72.35" r="1.14"/><path class="cls-8" d="M170.41,121.16a1.15,1.15,0,1,1-1.14-1.14A1.14,1.14,0,0,1,170.41,121.16Z"/><path class="cls-8" d="M69.29,108.41a1.15,1.15,0,1,1-1.15-1.14A1.15,1.15,0,0,1,69.29,108.41Z"/><circle class="cls-8" cx="33.67" cy="397.5" r="1.14"/><circle class="cls-8" cx="339.36" cy="102.99" r="1.14"/><circle class="cls-8" cx="371.66" cy="32.26" r="1.14"/><path class="cls-8" d="M266.67,56.28a1.15,1.15,0,1,1-1.14-1.14A1.14,1.14,0,0,1,266.67,56.28Z"/><path class="cls-8" d="M279.2,79.76a.55.55,0,1,1-.55-.54A.55.55,0,0,1,279.2,79.76Z"/><path class="cls-8" d="M301.64,19.55a.54.54,0,1,1-.54-.55A.54.54,0,0,1,301.64,19.55Z"/><path class="cls-8" d="M297.29,100.37a.55.55,0,1,1-.55-.54A.55.55,0,0,1,297.29,100.37Z"/><path class="cls-8" d="M308.47,90.35a.54.54,0,1,1-.54-.55A.54.54,0,0,1,308.47,90.35Z"/><path class="cls-8" d="M318.6,47.47a.54.54,0,1,1,.15-.75A.53.53,0,0,1,318.6,47.47Z"/><path class="cls-8" d="M333.13,51.3a.55.55,0,0,1-.75-.16.54.54,0,0,1,.15-.75.55.55,0,0,1,.6.91Z"/><path class="cls-8" d="M350.3,13.26a.55.55,0,0,1-.17-.75.54.54,0,0,1,.74-.17.53.53,0,0,1,.18.74A.55.55,0,0,1,350.3,13.26Z"/><path class="cls-8" d="M352.94,28.05a.55.55,0,0,1-.17-.75.54.54,0,0,1,.74-.17.53.53,0,0,1,.18.74A.55.55,0,0,1,352.94,28.05Z"/><path class="cls-8" d="M82.78,445.2a.55.55,0,1,1-1.09,0,.55.55,0,0,1,1.09,0Z"/><path class="cls-8" d="M82.78,463.93a.55.55,0,1,1-.54-.54A.54.54,0,0,1,82.78,463.93Z"/><path class="cls-8" d="M163.32,458.67a.55.55,0,1,1-.55-.54A.55.55,0,0,1,163.32,458.67Z"/><path class="cls-8" d="M443,360.83a.54.54,0,1,1-.54-.54A.54.54,0,0,1,443,360.83Z"/><path class="cls-8" d="M181.31,368.63a.54.54,0,1,1-.54-.54A.54.54,0,0,1,181.31,368.63Z"/><path class="cls-8" d="M255.61,160.6a.54.54,0,1,1-.54-.54A.54.54,0,0,1,255.61,160.6Z"/><path class="cls-8" d="M359.76,165.53a.54.54,0,1,1-1.08,0,.54.54,0,1,1,1.08,0Z"/><circle class="cls-8" cx="594.69" cy="226.15" r="1.14" transform="translate(167.2 697.38) rotate(-68.61)"/><path class="cls-8" d="M661.15,177.26a1.14,1.14,0,0,1-1.51.58,1.12,1.12,0,0,1-.58-1.5,1.14,1.14,0,1,1,2.09.92Z"/><path class="cls-8" d="M663.6,85.87a1.15,1.15,0,0,1-1.51.58,1.14,1.14,0,0,1,.92-2.09A1.15,1.15,0,0,1,663.6,85.87Z"/><path class="cls-8" d="M627,104.59a1.15,1.15,0,0,1-1.51.59,1.14,1.14,0,0,1-.58-1.51,1.12,1.12,0,0,1,1.5-.58A1.14,1.14,0,0,1,627,104.59Z"/><path class="cls-8" d="M667.58,105.74a1.14,1.14,0,1,1-.58-1.51A1.14,1.14,0,0,1,667.58,105.74Z"/><path class="cls-8" d="M226.48,50.53a1.15,1.15,0,0,1-1.51.59,1.14,1.14,0,1,1,1.51-.59Z"/><path class="cls-8" d="M614.42,131.28a.55.55,0,0,1-.72.27.53.53,0,0,1-.27-.71.54.54,0,0,1,.71-.28A.55.55,0,0,1,614.42,131.28Z"/><path class="cls-8" d="M653.54,242.25a.54.54,0,1,1-.27-.71A.54.54,0,0,1,653.54,242.25Z"/><path class="cls-8" d="M725.1,111.15a1.14,1.14,0,1,1-.58-1.5A1.14,1.14,0,0,1,725.1,111.15Z"/><path class="cls-8" d="M708.27,135.15a1.14,1.14,0,0,1-1.51.58,1.12,1.12,0,0,1-.58-1.5,1.14,1.14,0,1,1,2.09.92Z"/><path class="cls-8" d="M583.09,20.67a1.14,1.14,0,0,1-2.09-.92,1.15,1.15,0,0,1,1.51-.59A1.14,1.14,0,0,1,583.09,20.67Z"/><path class="cls-8" d="M717.5,176.14a.55.55,0,0,1-.72.28.54.54,0,1,1,.72-.28Z"/><circle class="cls-8" cx="192.7" cy="137.98" r="1.14"/><path class="cls-8" d="M66.47,417.05a2.95,2.95,0,1,1-2.95-2.94A2.95,2.95,0,0,1,66.47,417.05Z"/><circle class="cls-8" cx="25.46" cy="480.08" r="7.07"/><circle class="cls-8" cx="99.57" cy="402.54" r="0.77"/><path class="cls-8" d="M351.91,190.94a2.95,2.95,0,1,1-3-2.94A2.95,2.95,0,0,1,351.91,190.94Z"/><path class="cls-8" d="M356.55,400.44a2.95,2.95,0,1,1-2.94-2.94A2.94,2.94,0,0,1,356.55,400.44Z"/><path class="cls-8" d="M127.07,42.28a1.14,1.14,0,1,1,1.08-1.2A1.14,1.14,0,0,1,127.07,42.28Z"/><path class="cls-8" d="M78,39.2A1.14,1.14,0,1,1,79.12,38,1.16,1.16,0,0,1,78,39.2Z"/><path class="cls-8" d="M62.44,63.46a1.13,1.13,0,0,1-1.2-1.08,1.14,1.14,0,1,1,1.2,1.08Z"/><path class="cls-8" d="M111.66,463.93a1.14,1.14,0,1,1-.11-2.28,1.14,1.14,0,0,1,.11,2.28Z"/><path class="cls-8" d="M381.4,333.33a1.15,1.15,0,0,1-1.2-1.09,1.14,1.14,0,0,1,2.28-.11A1.15,1.15,0,0,1,381.4,333.33Z"/><circle class="cls-8" cx="277.51" cy="98.69" r="1.14"/><path class="cls-8" d="M649.09,28.93a1.15,1.15,0,1,1-1.15-1.15A1.15,1.15,0,0,1,649.09,28.93Z"/><path class="cls-8" d="M587.63,55.25a1.14,1.14,0,1,1-1.14-1.14A1.14,1.14,0,0,1,587.63,55.25Z"/></g></g></svg>